<svg width="80" height="20" viewBox="0 0 80 20" fill="none" xmlns="http://www.w3.org/2000/svg">
<path d="M11.7645 6.91106H19.0379L14.926 9.89109L14.9239 9.88446L10.7894 12.8853L13.4835 12.1863L15.3946 18.0852L9.51232 13.8089L3.63002 18.0852L5.88226 11.1742L0 6.89785L7.27333 6.91106L9.5255 0L11.7645 6.91106Z" fill="#00B67A"/>
<path d="M20.8926 6.91113H28.9343V8.40718H25.768V16.8407H24.0325V8.40718H20.8794L20.8926 6.91113ZM28.5899 9.6517H30.0737V11.0419H30.1002C30.1532 10.8432 30.2459 10.6579 30.3784 10.4725C30.5109 10.2871 30.6699 10.1151 30.8686 9.96945C31.0541 9.81054 31.266 9.69138 31.5045 9.59869C31.7297 9.50606 31.9682 9.45305 32.2067 9.45305C32.3922 9.45305 32.5247 9.46632 32.5909 9.46632C32.6571 9.47959 32.7366 9.49279 32.8029 9.49279V11.0154C32.6969 10.9888 32.5776 10.9756 32.4584 10.9624C32.3392 10.9491 32.2332 10.9359 32.1139 10.9359C31.849 10.9359 31.5973 10.9888 31.3588 11.0947C31.1203 11.2006 30.9216 11.3595 30.7361 11.5581C30.5639 11.77 30.4182 12.0215 30.3122 12.326C30.2062 12.6305 30.1532 12.988 30.1532 13.3852V16.801H28.5634L28.5899 9.6517ZM40.0894 16.8407H38.5262V15.8345H38.4996C38.3009 16.2052 38.0094 16.4832 37.6252 16.7084C37.2411 16.9334 36.8436 17.0393 36.4462 17.0393C35.5055 17.0393 34.8166 16.8143 34.3926 16.3376C33.9687 15.8742 33.7567 15.1593 33.7567 14.2193V9.6517H35.3465V14.0604C35.3465 14.6959 35.4658 15.1461 35.7174 15.3976C35.956 15.6624 36.3004 15.7949 36.7376 15.7949C37.0688 15.7949 37.3471 15.7419 37.5722 15.636C37.7974 15.53 37.9829 15.3976 38.1154 15.2255C38.2612 15.0533 38.3539 14.8416 38.4202 14.6032C38.4864 14.365 38.5128 14.1002 38.5128 13.8221V9.6517H40.1027V16.8407H40.0894ZM42.7921 14.5371C42.8451 15.0005 43.0173 15.3182 43.322 15.5167C43.6267 15.7021 43.9976 15.7949 44.4216 15.7949C44.5673 15.7949 44.7396 15.7816 44.9251 15.7551C45.1105 15.7286 45.296 15.6889 45.455 15.6227C45.6272 15.5565 45.7597 15.4639 45.8656 15.3315C45.9716 15.199 46.0247 15.0402 46.0114 14.8416C45.9981 14.643 45.9319 14.4709 45.7861 14.3384C45.6404 14.2061 45.4682 14.1134 45.2562 14.0207C45.0443 13.9413 44.7926 13.875 44.5144 13.8221C44.2361 13.7692 43.958 13.7029 43.6665 13.6368C43.375 13.5706 43.0836 13.4911 42.8053 13.3985C42.5271 13.3058 42.2886 13.1867 42.0635 13.0146C41.8515 12.8557 41.666 12.6571 41.5467 12.4055C41.4142 12.1539 41.3481 11.8627 41.3481 11.492C41.3481 11.0947 41.4407 10.777 41.6394 10.5123C41.8249 10.2475 42.0767 10.0356 42.3681 9.87669C42.6596 9.71785 42.9908 9.59869 43.3485 9.53247C43.7062 9.46632 44.0506 9.43985 44.3686 9.43985C44.7396 9.43985 45.0973 9.47959 45.4285 9.55894C45.7597 9.63843 46.0776 9.75759 46.3426 9.94297C46.6209 10.1151 46.8461 10.3533 47.0183 10.6313C47.2038 10.9094 47.3098 11.2536 47.3627 11.6509H45.7067C45.6272 11.2669 45.455 11.0154 45.19 10.8829C44.9118 10.7505 44.6071 10.6844 44.2494 10.6844C44.1434 10.6844 43.9976 10.6976 43.852 10.7108C43.693 10.7373 43.5605 10.7638 43.4148 10.8167C43.2823 10.8697 43.1631 10.9491 43.0702 11.0419C42.9776 11.1345 42.9246 11.2668 42.9246 11.4258C42.9246 11.6243 42.9908 11.77 43.1233 11.8891C43.2557 12.0083 43.428 12.101 43.6532 12.1937C43.8652 12.273 44.1169 12.3393 44.3951 12.3923C44.6734 12.4451 44.9648 12.5114 45.2562 12.5776C45.5477 12.6438 45.8259 12.7233 46.1041 12.8159C46.3824 12.9085 46.6341 13.0278 46.8461 13.1998C47.058 13.3587 47.2435 13.5573 47.376 13.7957C47.5085 14.034 47.5747 14.3384 47.5747 14.6827C47.5747 15.1064 47.482 15.4639 47.2832 15.7683C47.0845 16.0596 46.8328 16.3111 46.5281 16.4965C46.2234 16.6819 45.8656 16.8143 45.4948 16.9069C45.1105 16.9864 44.7396 17.0393 44.3686 17.0393C43.9182 17.0393 43.4943 16.9864 43.11 16.8804C42.7258 16.7745 42.3814 16.6157 42.1031 16.417C41.8249 16.2052 41.5997 15.9537 41.4407 15.636C41.2817 15.3315 41.189 14.9607 41.1757 14.5238H42.7789V14.5371H42.7921ZM48.0252 9.6517H49.2308V7.48041H50.8205V9.63843H52.2514V10.8167H50.8205V14.6562C50.8205 14.8284 50.8338 14.9607 50.8471 15.0931C50.8603 15.2123 50.9 15.3182 50.9398 15.3976C50.9928 15.4771 51.0723 15.5433 51.165 15.583C51.271 15.6227 51.4034 15.6492 51.5889 15.6492C51.6949 15.6492 51.8141 15.6492 51.9202 15.636C52.0262 15.6227 52.1454 15.6095 52.2514 15.583V16.8143C52.0791 16.8407 51.9069 16.854 51.7347 16.8673C51.5625 16.8937 51.4034 16.8937 51.218 16.8937C50.794 16.8937 50.4628 16.854 50.2111 16.7745C49.9594 16.6951 49.7607 16.5759 49.615 16.4303C49.4692 16.2714 49.3765 16.0861 49.3235 15.861C49.2705 15.636 49.244 15.3579 49.2308 15.0666V10.83H48.0252V9.62523V9.6517ZM53.3642 9.6517H54.8613V10.6313H54.8878C55.113 10.2077 55.4178 9.91643 55.8151 9.73112C56.2126 9.54574 56.6365 9.45305 57.1135 9.45305C57.6832 9.45305 58.1733 9.54574 58.5973 9.75759C59.0213 9.95618 59.3657 10.221 59.6439 10.5785C59.9221 10.9226 60.1341 11.3331 60.2666 11.7965C60.3991 12.2599 60.4786 12.763 60.4786 13.2793C60.4786 13.7692 60.4123 14.2325 60.2931 14.6827C60.1606 15.1328 59.9752 15.5433 59.7234 15.8875C59.4717 16.2317 59.1537 16.5098 58.7563 16.7216C58.3588 16.9334 57.9084 17.0393 57.3785 17.0393C57.1533 17.0393 56.9148 17.0128 56.6896 16.9732C56.4643 16.9334 56.2392 16.8673 56.0272 16.7745C55.8151 16.6819 55.6164 16.5627 55.4442 16.417C55.2588 16.2714 55.113 16.0993 54.9938 15.914H54.9673V19.5019H53.3775V9.6517H53.3642ZM58.9153 13.2528C58.9153 12.9351 58.8756 12.6173 58.7828 12.3128C58.7033 12.0083 58.5708 11.7435 58.3986 11.5052C58.2263 11.2668 58.0144 11.0815 57.7759 10.9359C57.5242 10.7903 57.2327 10.7241 56.9148 10.7241C56.2523 10.7241 55.7489 10.9491 55.4045 11.4125C55.0733 11.8759 54.901 12.4982 54.901 13.266C54.901 13.6368 54.9408 13.9677 55.0335 14.2722C55.1263 14.5768 55.2454 14.8416 55.4309 15.0666C55.6032 15.2917 55.8151 15.4639 56.0668 15.5962C56.3186 15.7286 56.5968 15.7949 56.928 15.7949C57.299 15.7949 57.5905 15.7154 57.8422 15.5697C58.0939 15.4241 58.2926 15.2255 58.4648 15.0005C58.6238 14.7621 58.743 14.4973 58.8093 14.1929C58.8756 13.875 58.9153 13.5706 58.9153 13.2528ZM61.7107 6.91113H63.3002V8.40718H61.7107V6.91113ZM61.7107 9.6517H63.3002V16.8407H61.7107V9.6517ZM64.7182 6.91113H66.3081V16.8407H64.7182V6.91113ZM71.157 17.0393C70.5868 17.0393 70.0702 16.9466 69.6199 16.748C69.1695 16.5495 68.7988 16.2979 68.4803 15.9669C68.1758 15.636 67.9376 15.2255 67.7783 14.7621C67.6197 14.2988 67.5267 13.7824 67.5267 13.2396C67.5267 12.6967 67.6063 12.1937 67.7783 11.7303C67.9376 11.2669 68.1758 10.8697 68.4803 10.5255C68.7854 10.1945 69.1695 9.9297 69.6199 9.74432C70.0702 9.55894 70.5868 9.45305 71.157 9.45305C71.7264 9.45305 72.243 9.54574 72.6934 9.74432C73.1437 9.9297 73.5151 10.1945 73.833 10.5255C74.1375 10.8565 74.3757 11.2669 74.535 11.7303C74.6942 12.1937 74.7866 12.6967 74.7866 13.2396C74.7866 13.7957 74.7069 14.2988 74.535 14.7621C74.363 15.2255 74.1375 15.6227 73.833 15.9669C73.5278 16.2979 73.1437 16.5627 72.6934 16.748C72.243 16.9334 71.7398 17.0393 71.157 17.0393ZM71.157 15.7816C71.5009 15.7816 71.8188 15.7021 72.0711 15.5565C72.336 15.4108 72.5348 15.2123 72.7068 14.974C72.8788 14.7356 72.9985 14.4576 73.0775 14.1663C73.1571 13.8618 73.1973 13.5573 73.1973 13.2396C73.1973 12.9351 73.1571 12.6305 73.0775 12.326C72.9985 12.0215 72.8788 11.7568 72.7068 11.5184C72.5348 11.2801 72.3227 11.0947 72.0711 10.9491C71.8061 10.8035 71.5009 10.7241 71.157 10.7241C70.8123 10.7241 70.4945 10.8035 70.2429 10.9491C69.9779 11.0947 69.7791 11.2934 69.6065 11.5184C69.4345 11.7568 69.3154 12.0215 69.2358 12.326C69.1561 12.6305 69.1167 12.9351 69.1167 13.2396C69.1167 13.5573 69.1561 13.8618 69.2358 14.1663C69.3154 14.4709 69.4345 14.7356 69.6065 14.974C69.7791 15.2123 69.9906 15.4108 70.2429 15.5565C70.5079 15.7154 70.8123 15.7816 71.157 15.7816ZM75.2637 9.6517H76.4695V7.48041H78.0588V9.63843H79.4902V10.8167H78.0588V14.6562C78.0588 14.8284 78.0722 14.9607 78.0856 15.0931C78.099 15.2123 78.1391 15.3182 78.1779 15.3976C78.2315 15.4771 78.3111 15.5433 78.4034 15.583C78.5098 15.6227 78.6417 15.6492 78.827 15.6492C78.9334 15.6492 79.0525 15.6492 79.1589 15.636C79.2647 15.6227 79.3844 15.6095 79.4902 15.583V16.8143C79.3175 16.8407 79.1456 16.854 78.9736 16.8673C78.8009 16.8937 78.6417 16.8937 78.4563 16.8937C78.0327 16.8937 77.7015 16.854 77.4499 16.7745C77.1976 16.6951 76.9988 16.5759 76.8536 16.4303C76.7078 16.2714 76.6147 16.0861 76.5619 15.861C76.509 15.636 76.4829 15.3579 76.4695 15.0666V10.83H75.2637V9.62523V9.6517Z" fill="black"/>
</svg>
